<svg preserveAspectRatio="none" overflow="visible" style="display: block;" width="285.651" height="270.107" viewBox="0 0 285.651 270.107" fill="none" xmlns="http://www.w3.org/2000/svg">
<g id="Group 349">
<path id="Vector" opacity="0.2" d="M92.0739 31.4587C112.726 14.2811 139.931 6.9751 162.647 12.5063L220.973 26.7083C237.794 30.8041 250.65 41.1511 256.819 55.5574C262.38 68.5442 262.129 83.9589 256.112 99.1119L215.124 202.322C209.456 216.593 198.988 229.8 185.358 239.873C168.431 252.384 147.972 259.077 128.788 258.38L70.2594 256.255C53.8005 255.657 39.9108 248.727 31.8973 237.114C24.4045 226.256 22.6568 212.18 27.0219 197.845L66.3093 68.8301C70.5195 55.0042 79.5981 41.8357 92.0739 31.4587Z" stroke="#161616" stroke-width="4"/>
<path id="Vector_2" opacity="0.2" d="M112.672 33.1672C130.043 16.6553 154.759 9.40726 174.869 14.9274L206.049 23.4866C221.2 27.6455 232.226 37.881 236.444 51.7021C239.497 61.7071 238.805 73.0245 234.459 84.1532L196.076 182.433C192.059 192.719 184.999 202.386 175.75 210.263C161.35 222.528 142.9 229.404 125.522 228.981L92.1296 228.169C77.3368 227.809 65.1651 221.029 59.2433 209.851C54.8894 201.633 54.2388 191.634 57.4012 181.543L95.5446 59.8249C98.567 50.1801 104.518 40.918 112.672 33.1672Z" stroke="#161616" stroke-width="4"/>
<path id="Vector_3" opacity="0.2" d="M132.443 40.6843C146.839 24.2939 170.053 16.8647 188.058 22.8855L194.837 25.1521C208.847 29.8369 218.242 40.6177 220.385 54.4691C221.523 61.8249 220.562 69.7291 217.584 77.5111L180.614 174.11C177.952 181.065 173.628 187.72 167.982 193.551C155.774 206.16 138.578 213.718 122.179 213.684L112.103 213.662C98.3167 213.633 87.387 206.602 83.6559 195.36C81.7448 189.603 81.8497 183.092 83.9587 176.582L122.362 58.0285C124.344 51.9125 127.792 45.9789 132.443 40.6843Z" stroke="#161616" stroke-width="4"/>
</g>
</svg>
